<svg xmlns="http://www.w3.org/2000/svg" width="255.999" height="255.999" viewBox="0 0 67.733 67.733">
    <style>
      #outline {fill: #adc178 }
      @media (prefers-color-scheme: dark) {
        #outline { fill: #52796f; }
      }
    </style>
    <path d="M0 0h67.733v67.733H0z" fill="#fff"/>
    <path id='outline' d="M0 67.733h33.867 33.867V33.866 0H33.867 0v33.867zm25.946-8.027l-2.799-.006-2.799-.006-1.221-.509-1.221-.509-.208-.301-.208-.301-.004-.941-.004-.941-1.024-.003-1.024-.003-1.496-.64-1.496-.64-.207-.299-.207-.299-.004-.768-.004-.768.766-.674.766-.674h2.597 2.597l.734-.704.734-.704v-.144-.144l-.816-.311-.816-.311-.915-.93-.915-.93-.168-1.3-.168-1.3.875-1.293.875-1.293.097-1.962.097-1.962-.643-.501-.643-.501-1.902-1.326-1.902-1.326-.83-1.084-.83-1.084v-1.597-1.597l1.08-1.016 1.08-1.016 2.061.004 2.061.004 1.775.38 1.775.38.478.135.478.135-.004-1.334-.004-1.334 1.025-1.881 1.025-1.881 3.281-3.02 3.281-3.02 1.047-.452 1.047-.452.638.147.638.147.324.902.324.902.994-.872.994-.872 1.705-1.054 1.705-1.054.155-.23.155-.23h.94.94l.515.473.515.473.578 1.418.578 1.418v.472.472l.164.391.164.391 2.169-1.813 2.169-1.813.518-.219.518-.219.653.151.653.151.32.645.32.645v2.371 2.371h.423.423l1.935 1.767 1.935 1.767-.14 1.599-.14 1.598-.874 1.403-.874 1.403-.934.655-.934.655v.352.352l-1.214 2.19-1.214 2.19-.54.73-.54.73-1.879 1.779-1.879 1.779-2.509 2.55-2.509 2.55-3.412 3.157-3.412 3.157-1.302-.002-1.302-.002-2.288-.242-2.288-.242-.774.761-.774.761.809 1.025.809 1.025v1.468 1.468l-.546.502zM20.6 57.205l.567.211 1.707.016 1.707.016v-.496-.496l-.751-.438-.751-.438-.478-.484-.478-.484v-.337-.337l.952-1.217.952-1.217-.178-.163-.178-.163h-.554-.554l-.766.674-.766.674v.437.437l-.453.417-.453.417-.045 1.382-.045 1.382.567.211zm-4.005-3.446l-.618.109 1.092.005 1.092.005-.475-.114-.475-.114-.618.109zm14.95-3.426l.615.045.615.045v-.454-.454l-.341-.407-.341-.407-2.458-.923-2.458-.923-1.296-.473-1.296-.473-2.732-.164-2.732-.164v.242.242l.751.627.751.627.786.308.786.308.464-.386.464-.386h.3.3l.429.394.429.394v.589.589l.838.169.838.169.517-.43.517-.43.69.159.69.159.167.611.167.611 1.271.093zm3.488-1.753l2.217-2.028 2.217-2.028 4.233-4.227 4.233-4.227 1.15-1.913 1.15-1.913-.147-.536-.147-.536 1.765-1.621 1.765-1.621.408-.732.408-.732.178-.759.178-.759-.965-.859-.965-.859-.26.239-.26.239-.972 2.467-.972 2.467-.338.586-.338.586-1.316 1.274-1.316 1.274h-.508-.508l-.429-.394-.429-.394v-.426-.426l1.394-2.503 1.394-2.503.931-1.389.931-1.389.175-2.813.175-2.813h-.269-.269l-2.355 2.173-2.355 2.173-.179.775-.179.775-.557 1.505-.557 1.505-.84 1.38-.84 1.38-1.522 1.442-1.522 1.442h-.582-.582l-.429-.394-.429-.394v-.521-.521l1.238-2.032 1.238-2.032 1.679-2.509 1.679-2.509.018-1.631.018-1.631-.377-1.192-.377-1.192h-.191-.191l-1.344.795-1.344.795-.906.773-.906.773-.525.778-.525.778-.686 2.174-.686 2.174-1.635 2.996-1.635 2.996-.532.262-.532.262h-.272-.272l-.429-.394-.429-.394v-.753-.753l1.207-1.714 1.207-1.714 1.009-2.655 1.009-2.655-.186-1.139-.186-1.139-1.142.823-1.142.823-1.37 1.254-1.37 1.254-.764.944-.764.944-.701 1.406-.701 1.406.18 1.826.18 1.826-.438.402-.438.402-.322.004-.322.004-.574.141-.574.141-.474-.435-.474-.435-2.093-.46-2.093-.46-1.388-.002-1.388-.002-.348.597-.348.597.189.548.189.548.807.845.807.845 2.172 1.436 2.172 1.436.272.901.272.901.001 2.053.001 2.053-.252.608-.252.608 2.622.169 2.622.169 1.658.63 1.658.63 1.775.632 1.775.632.86.386.86.386.474.809z" />
</svg>