<?xml version="1.0" encoding="UTF-8" standalone="no"?>
<!-- Created with Inkscape (http://www.inkscape.org/) -->

<svg
   width="67.733337mm"
   height="67.733337mm"
   viewBox="0 0 67.733337 67.733337"
   version="1.1"
   id="svg2248"
   xml:space="preserve"
   inkscape:version="1.2.2 (732a01da63, 2022-12-09)"
   sodipodi:docname="walo.svg"
   xmlns:inkscape="http://www.inkscape.org/namespaces/inkscape"
   xmlns:sodipodi="http://sodipodi.sourceforge.net/DTD/sodipodi-0.dtd"
   xmlns="http://www.w3.org/2000/svg"
   xmlns:svg="http://www.w3.org/2000/svg">
   
   <sodipodi:namedview
     id="namedview2250"
     pagecolor="#ffffff"
     bordercolor="#000000"
     borderopacity="0.25"
     inkscape:showpageshadow="2"
     inkscape:pageopacity="0.0"
     inkscape:pagecheckerboard="0"
     inkscape:deskcolor="#d1d1d1"
     inkscape:document-units="mm"
     showgrid="false"
     inkscape:zoom="1.2938725"
     inkscape:cx="62.216332"
     inkscape:cy="25.891269"
     inkscape:window-width="1419"
     inkscape:window-height="1230"
     inkscape:window-x="514"
     inkscape:window-y="96"
     inkscape:window-maximized="0"
     inkscape:current-layer="layer1" /><defs
     id="defs2245" /><g
     inkscape:label="Calque 1"
     inkscape:groupmode="layer"
     id="layer1"
     transform="translate(-75.447839,-57.517947)"><g
       id="g3352"
       transform="translate(75.447842,57.517947)"><g
         id="layer2"
         inkscape:label="Background" /><g
         inkscape:label="Calque 1"
         id="layer1-1"
         transform="translate(-20.959155,-32.181556)"><rect
           style="fill:#ffffff;stroke-width:0;stroke-dasharray:none"
           id="rect3181"
           width="67.733337"
           height="67.733337"
           x="20.959152"
           y="32.181557"
           ry="0" /><path
           style="fill:#adc178;fill-opacity:1;stroke-width:0.999999"
           d="M 20.959155,99.91489 H 54.825812 88.69249 V 66.048228 32.181556 H 54.825812 20.959155 v 33.866672 z m 25.946,-8.026889 -2.799462,-0.0057 -2.799463,-0.0057 -1.221462,-0.508917 -1.22146,-0.508919 -0.208227,-0.300876 -0.208237,-0.300885 -0.0041,-0.940743 -0.0041,-0.940742 -1.024186,-0.0028 -1.024196,-0.0028 -1.496083,-0.63964 -1.496072,-0.63964 -0.206731,-0.298646 -0.20673,-0.298648 -0.0041,-0.768379 -0.0041,-0.76837 0.766018,-0.674095 0.766029,-0.674095 h 2.596851 2.596862 L 40.4361,82.904804 41.169995,82.201193 V 82.057206 81.91322 L 40.353591,81.602618 39.537189,81.292004 38.622,80.361539 l -0.91519,-0.930465 -0.167618,-1.299967 -0.167629,-1.299969 0.875004,-1.292894 0.875004,-1.292894 0.09703,-1.96188 0.09703,-1.961879 -0.643254,-0.500755 -0.64321,-0.500746 -1.901595,-1.326108 -1.901595,-1.326117 -0.829584,-1.084179 -0.829595,-1.084189 V 62.90258 61.305661 l 1.079628,-1.015542 1.079618,-1.015542 2.061244,0.0038 2.061234,0.0038 1.775267,0.380037 1.775266,0.380046 0.477967,0.134885 0.477956,0.134883 -0.0041,-1.333941 -0.0041,-1.333948 1.025198,-1.881477 1.025208,-1.881485 3.280515,-3.019615 3.280511,-3.019623 1.047342,-0.451622 1.047338,-0.451622 0.638431,0.147181 0.638421,0.147181 0.324201,0.902277 0.324191,0.902266 0.994343,-0.872163 0.994333,-0.872173 1.704754,-1.054085 1.704764,-1.054084 0.154911,-0.23023 0.154911,-0.230229 h 0.939788 0.939799 l 0.51488,0.472927 0.51489,0.472936 0.57759,1.417956 0.577589,1.417965 v 0.471797 0.471808 l 0.163509,0.391377 0.163511,0.391376 2.169279,-1.813333 2.16929,-1.813323 0.517554,-0.219354 0.517544,-0.219354 0.653368,0.150623 0.653367,0.150623 0.319949,0.644978 0.319938,0.644977 v 2.371404 2.371412 h 0.422865 0.422864 l 1.935091,1.767073 1.935092,1.766864 -0.139696,1.598501 -0.139694,1.598493 -0.874128,1.403317 -0.874116,1.403325 -0.934462,0.654667 -0.934462,0.654668 v 0.351535 0.351536 l -1.214244,2.190051 -1.214256,2.190041 -0.540481,0.729971 -0.540479,0.729959 -1.878575,1.778678 -1.878576,1.778678 -2.509378,2.550253 -2.509378,2.550243 -3.412119,3.156916 -3.412118,3.156915 -1.301647,-0.0019 -1.301648,-0.0019 -2.287707,-0.241588 -2.287698,-0.241587 -0.774061,0.761116 -0.774059,0.761107 0.808537,1.025204 0.808537,1.025204 v 1.467543 1.467553 l -0.54624,0.501722 z m -5.346002,-2.501016 0.566669,0.210622 1.706983,0.01593 1.706994,0.01593 v -0.49595 -0.495938 L 44.788728,88.199241 44.037646,87.760921 43.55969,87.277053 43.081734,86.793185 V 86.45586 86.118528 l 0.951794,-1.216882 0.951793,-1.216871 -0.177961,-0.163461 -0.177951,-0.163451 H 44.075354 43.52129 l -0.766018,0.674095 -0.766018,0.674085 v 0.436879 0.436878 l -0.453482,0.416521 -0.45347,0.416531 -0.0449,1.381783 -0.0449,1.381785 0.566658,0.21062 z m -4.004882,-3.446404 -0.617693,0.109104 1.092471,0.0047 1.092468,0.0047 -0.474766,-0.114166 -0.474777,-0.114157 -0.617703,0.109094 z m 14.950044,-3.425801 0.614514,0.04523 0.614513,0.04523 V 82.151451 81.697666 L 53.391944,81.291139 53.050546,80.884611 50.592484,79.96192 48.134421,79.03923 46.837936,78.565763 45.54144,78.092296 42.809435,77.927839 40.07743,77.763392 v 0.241636 0.241646 l 0.751081,0.626763 0.751071,0.626773 0.786488,0.307627 0.786498,0.307636 0.46404,-0.385735 0.464053,-0.385744 h 0.300386 0.300378 l 0.429191,0.39422 0.429183,0.394212 v 0.589312 0.589302 l 0.837698,0.168998 0.837698,0.168997 0.516892,-0.429652 0.516883,-0.429663 0.689642,0.158986 0.68964,0.158985 0.166844,0.61057 0.166832,0.610579 1.271195,0.09301 z m 3.488259,-1.753466 2.216608,-2.028268 2.21661,-2.028269 4.233331,-4.22655 4.233332,-4.226541 1.150089,-1.912869 1.150092,-1.91286 -0.14652,-0.536216 -0.146519,-0.536216 1.765121,-1.621295 1.765109,-1.621294 0.407567,-0.732085 0.407556,-0.732075 0.177641,-0.758811 0.177642,-0.758803 -0.964635,-0.858776 -0.964634,-0.858785 -0.260078,0.238895 -0.260088,0.238886 -0.972046,2.466522 -0.972047,2.466512 -0.337766,0.585975 -0.337774,0.585973 -1.315975,1.273856 -1.315974,1.273866 h -0.508067 -0.508067 l -0.429183,-0.39422 -0.429181,-0.394212 v -0.426496 -0.426496 l 1.393683,-2.503244 1.393682,-2.503234 0.9309,-1.389292 0.930901,-1.389284 0.175206,-2.81269 0.175215,-2.81268 h -0.26945 -0.269451 l -2.354869,2.172728 -2.354859,2.172738 -0.179159,0.77492 -0.179169,0.774912 -0.556563,1.505186 -0.556573,1.505185 -0.839845,1.379754 -0.839845,1.379754 -1.522447,1.442474 -1.522446,1.442465 H 58.998025 58.41642 l -0.429194,-0.394211 -0.429182,-0.394222 v -0.521073 -0.521083 l 1.238226,-2.032364 1.238234,-2.032355 1.679288,-2.508638 1.679287,-2.508648 0.01848,-1.630616 0.01848,-1.630615 -0.376888,-1.191604 -0.376898,-1.191604 h -0.190804 -0.190802 l -1.344135,0.794946 -1.344134,0.794936 -0.905652,0.772959 -0.905662,0.77296 -0.525212,0.777755 -0.525244,0.77785 -0.685843,2.173848 -0.685843,2.173857 -1.634952,2.995768 -1.634953,2.995769 -0.531981,0.261519 -0.531994,0.261508 h -0.271556 -0.271567 l -0.429191,-0.394211 -0.429182,-0.394221 v -0.753456 -0.753465 l 1.207483,-1.714489 1.207479,-1.714478 1.008756,-2.655118 1.008764,-2.655118 -0.185889,-1.138583 -0.185889,-1.138584 -1.141772,0.823277 -1.141766,0.823268 -1.370085,1.254314 -1.370094,1.254324 -0.76445,0.944384 -0.764459,0.944393 -0.700614,1.405667 -0.700625,1.405667 0.180129,1.825897 0.18014,1.825896 -0.438009,0.402318 -0.438007,0.402318 -0.321889,0.0038 -0.321889,0.0038 -0.573801,0.141492 -0.573802,0.141483 -0.474085,-0.435457 -0.474095,-0.435464 -2.092965,-0.46008 -2.092976,-0.460089 -1.387715,-0.0019 -1.387717,-0.0019 -0.348005,0.597267 -0.348006,0.597267 0.189389,0.548105 0.189399,0.548095 0.807433,0.844688 0.807432,0.844675 2.17187,1.43635 2.171881,1.436349 0.272485,0.901006 0.272486,0.901006 0.001,2.053299 10e-4,2.053311 -0.251602,0.607847 -0.251603,0.607858 2.622173,0.169301 2.622172,0.169302 1.65793,0.63011 1.657919,0.63012 1.775269,0.632216 1.775273,0.632216 0.859675,0.385734 0.859685,0.385727 0.47425,0.808874 z"
           id="path302"
           sodipodi:nodetypes="cccccccccccccccccccccccccccccccccccccccccccccccccccccccccccccccccccccccccccccccccccccccccccccccccccccccccccccccccccccccccccccccccccccccccccccccccccccccccccccccccccccccccccccccccccccccccccccccccccccccccccccccccccccccccccccccccccccccccccccccccccccccccccccccccccccccccccccccccccccccccccccccccccccccccccccccccccccccccccccccccccccccccccccccccccc" /></g></g></g></svg>
